<mxfile host="app.diagrams.net" agent="Mozilla/5.0 (Windows NT 10.0; Win64; x64) AppleWebKit/537.36 (KHTML, like Gecko) Chrome/141.0.0.0 Safari/537.36" version="28.2.8">
  <diagram name="Страница — 1" id="FTG158FKr1oAG6de0SM8">
    <mxGraphModel dx="1426" dy="871" grid="1" gridSize="10" guides="1" tooltips="1" connect="1" arrows="1" fold="1" page="1" pageScale="1" pageWidth="827" pageHeight="1169" math="0" shadow="0">
      <root>
        <mxCell id="0" />
        <mxCell id="1" parent="0" />
        <mxCell id="_63Vu_Hd5VsCuX6GmpN1-22" value="" style="rounded=1;whiteSpace=wrap;html=1;" vertex="1" parent="1">
          <mxGeometry x="560" y="130" width="120" height="52.5" as="geometry" />
        </mxCell>
        <mxCell id="_63Vu_Hd5VsCuX6GmpN1-1" value="" style="rounded=0;whiteSpace=wrap;html=1;" vertex="1" parent="1">
          <mxGeometry x="40" y="40" width="360" height="40" as="geometry" />
        </mxCell>
        <mxCell id="_63Vu_Hd5VsCuX6GmpN1-2" value="" style="ellipse;whiteSpace=wrap;html=1;aspect=fixed;" vertex="1" parent="1">
          <mxGeometry x="50" y="45" width="30" height="30" as="geometry" />
        </mxCell>
        <mxCell id="_63Vu_Hd5VsCuX6GmpN1-3" value="WEBSITE" style="text;html=1;whiteSpace=wrap;strokeColor=none;fillColor=none;align=left;verticalAlign=middle;rounded=0;fontSize=18;" vertex="1" parent="1">
          <mxGeometry x="90" y="40" width="90" height="40" as="geometry" />
        </mxCell>
        <mxCell id="_63Vu_Hd5VsCuX6GmpN1-4" value="" style="rounded=0;whiteSpace=wrap;html=1;" vertex="1" parent="1">
          <mxGeometry x="190" y="52.5" width="190" height="15" as="geometry" />
        </mxCell>
        <mxCell id="_63Vu_Hd5VsCuX6GmpN1-5" value="" style="rounded=0;whiteSpace=wrap;html=1;" vertex="1" parent="1">
          <mxGeometry x="40" y="120" width="360" height="40" as="geometry" />
        </mxCell>
        <mxCell id="_63Vu_Hd5VsCuX6GmpN1-7" value="WEBSITE" style="text;html=1;whiteSpace=wrap;strokeColor=none;fillColor=none;align=left;verticalAlign=middle;rounded=0;fontSize=18;" vertex="1" parent="1">
          <mxGeometry x="50" y="120" width="90" height="40" as="geometry" />
        </mxCell>
        <mxCell id="_63Vu_Hd5VsCuX6GmpN1-8" value="" style="rounded=0;whiteSpace=wrap;html=1;" vertex="1" parent="1">
          <mxGeometry x="150" y="132.5" width="230" height="15" as="geometry" />
        </mxCell>
        <mxCell id="_63Vu_Hd5VsCuX6GmpN1-9" value="" style="rounded=0;whiteSpace=wrap;html=1;" vertex="1" parent="1">
          <mxGeometry x="40" y="200" width="360" height="40" as="geometry" />
        </mxCell>
        <mxCell id="_63Vu_Hd5VsCuX6GmpN1-10" value="" style="ellipse;whiteSpace=wrap;html=1;aspect=fixed;" vertex="1" parent="1">
          <mxGeometry x="50" y="205" width="30" height="30" as="geometry" />
        </mxCell>
        <mxCell id="_63Vu_Hd5VsCuX6GmpN1-12" value="" style="rounded=0;whiteSpace=wrap;html=1;" vertex="1" parent="1">
          <mxGeometry x="90" y="212.5" width="290" height="15" as="geometry" />
        </mxCell>
        <mxCell id="_63Vu_Hd5VsCuX6GmpN1-13" value="" style="rounded=0;whiteSpace=wrap;html=1;" vertex="1" parent="1">
          <mxGeometry x="440" y="40" width="360" height="40" as="geometry" />
        </mxCell>
        <mxCell id="_63Vu_Hd5VsCuX6GmpN1-14" value="" style="ellipse;whiteSpace=wrap;html=1;aspect=fixed;" vertex="1" parent="1">
          <mxGeometry x="450" y="45" width="30" height="30" as="geometry" />
        </mxCell>
        <mxCell id="_63Vu_Hd5VsCuX6GmpN1-15" value="WEBSITE" style="text;html=1;whiteSpace=wrap;strokeColor=none;fillColor=none;align=left;verticalAlign=middle;rounded=0;fontSize=18;" vertex="1" parent="1">
          <mxGeometry x="700" y="40" width="90" height="40" as="geometry" />
        </mxCell>
        <mxCell id="_63Vu_Hd5VsCuX6GmpN1-16" value="" style="rounded=0;whiteSpace=wrap;html=1;" vertex="1" parent="1">
          <mxGeometry x="490" y="52.5" width="200" height="15" as="geometry" />
        </mxCell>
        <mxCell id="_63Vu_Hd5VsCuX6GmpN1-17" value="" style="rounded=0;whiteSpace=wrap;html=1;" vertex="1" parent="1">
          <mxGeometry x="440" y="120" width="360" height="40" as="geometry" />
        </mxCell>
        <mxCell id="_63Vu_Hd5VsCuX6GmpN1-18" value="" style="ellipse;whiteSpace=wrap;html=1;aspect=fixed;" vertex="1" parent="1">
          <mxGeometry x="605" y="125" width="30" height="30" as="geometry" />
        </mxCell>
        <mxCell id="_63Vu_Hd5VsCuX6GmpN1-19" value="WEBSITE" style="text;html=1;whiteSpace=wrap;strokeColor=none;fillColor=none;align=left;verticalAlign=middle;rounded=0;fontSize=18;" vertex="1" parent="1">
          <mxGeometry x="575" y="160" width="90" height="22.5" as="geometry" />
        </mxCell>
        <mxCell id="_63Vu_Hd5VsCuX6GmpN1-20" value="" style="rounded=0;whiteSpace=wrap;html=1;" vertex="1" parent="1">
          <mxGeometry x="450" y="132.5" width="150" height="15" as="geometry" />
        </mxCell>
        <mxCell id="_63Vu_Hd5VsCuX6GmpN1-21" value="" style="rounded=0;whiteSpace=wrap;html=1;" vertex="1" parent="1">
          <mxGeometry x="640" y="132.5" width="150" height="15" as="geometry" />
        </mxCell>
      </root>
    </mxGraphModel>
  </diagram>
</mxfile>
